<svg xmlns="http://www.w3.org/2000/svg" version="1.1" xmlns:xlink="http://www.w3.org/1999/xlink" xmlns:svgjs="http://svgjs.dev/svgjs" width="1000" height="623" viewBox="0 0 1000 623"><g transform="matrix(1,0,0,1,-0.6060606060606233,0.2522267206477409)"><svg viewBox="0 0 396 247" data-background-color="#ffffff" preserveAspectRatio="xMidYMid meet" height="623" width="1000" xmlns="http://www.w3.org/2000/svg" xmlns:xlink="http://www.w3.org/1999/xlink"><g id="tight-bounds" transform="matrix(1,0,0,1,0.2400000000000091,-0.09999999999999432)"><svg viewBox="0 0 395.52 247.2" height="247.2" width="395.52"><g><svg></svg></g><g><svg viewBox="0 0 395.52 247.2" height="247.2" width="395.52"><g transform="matrix(1,0,0,1,145.88837363896846,47.215199999999996)"><svg viewBox="0 0 103.74325272206305 152.7696" height="152.7696" width="103.74325272206305"><g><svg viewBox="0 0 103.74325272206305 152.7696" height="152.7696" width="103.74325272206305"><g><svg viewBox="0 0 103.74325272206305 152.7696" height="152.7696" width="103.74325272206305"><g><svg viewBox="0 0 103.74325272206305 152.7696" height="152.7696" width="103.74325272206305"><g id="textblocktransform"><svg viewBox="0 0 103.74325272206305 152.7696" height="152.7696" width="103.74325272206305" id="textblock"><g><svg viewBox="0 0 103.74325272206305 152.7696" height="152.7696" width="103.74325272206305"><g transform="matrix(1,0,0,1,0,0)"><svg width="103.74325272206305" viewBox="1.05 -34.9 23.7 34.9" height="152.7696" data-palette-color="#0063db"><path d="M24.75-31.4L14.9-31.4 14.9 0 10.9 0 10.9-31.4 1.05-31.4 1.05-34.9 24.75-34.9 24.75-31.4Z" opacity="1" transform="matrix(1,0,0,1,0,0)" fill="#0063db" class="wordmark-text-0" data-fill-palette-color="primary" id="text-0"></path></svg></g></svg></g></svg></g></svg></g></svg></g></svg></g></svg></g><g><path d="M175.472 0c30.402 0 58.24 10.976 79.768 29.183l-11.147 0c-19.26-14.022-42.974-22.294-68.621-22.295-25.647 0-49.361 8.272-68.621 22.295l-11.148 0c21.528-18.206 49.366-29.183 79.769-29.183zM175.472 247.2c-30.402 0-58.24-10.976-79.769-29.183h11.148c19.26 14.022 42.974 22.294 68.621 22.295 25.647 0 49.361-8.272 68.621-22.295h11.147c-21.528 18.206-49.366 29.183-79.768 29.183z" fill="#0063db" stroke="transparent" data-fill-palette-color="tertiary"></path></g></svg></g><defs></defs></svg><rect width="395.52" height="247.2" fill="none" stroke="none" visibility="hidden"></rect></g></svg></g></svg>